<svg xmlns="http://www.w3.org/2000/svg"><symbol id="insta" viewBox="0 0 24 24"><path d="M23.982 12.025c0 1.749.011 3.497 0 5.246-.013 3.796-2.936 6.72-6.733 6.72-3.497.011-6.994.011-10.491 0C2.922 23.977.01 21.067 0 17.22V6.804C.011 2.932 2.922.022 6.794.01c3.46-.011 6.908-.011 10.367 0 3.922.013 6.808 2.898 6.82 6.832.012 1.725 0 3.448 0 5.184zm-11.979-6.67a6.624 6.624 0 00-6.657 6.657 6.61 6.61 0 006.62 6.633 6.615 6.615 0 006.682-6.633 6.62 6.62 0 00-6.645-6.657zm9.318-1.348c0-.7-.6-1.312-1.3-1.337-.724-.026-1.36.612-1.373 1.337 0 .698.599 1.31 1.3 1.336.735.025 1.373-.6 1.373-1.337z"/><path d="M15.988 12.026a3.978 3.978 0 01-4.023 3.972 3.99 3.99 0 01-3.96-3.984 3.996 3.996 0 015.532-3.703 3.988 3.988 0 012.45 3.715z"/></symbol><symbol id="facebook" viewBox="0 0 10 24"><path d="M6.588 23.9V12.947h2.48l.56-4.282h-3.04v-2.59c0-1.293.28-2.091 1.96-2.091h1.174V.2C9.35.098 9.014 0 7.614 0c-3.08 0-5.133 1.992-5.133 5.577v3.186H0v4.283h2.481V24l4.107-.1z"/></symbol><symbol id="twitter" viewBox="0 0 28 23"><path d="M28 2.693c-1.048.465-2.16.77-3.299.906A5.755 5.755 0 0027.227.42a11.51 11.51 0 01-3.648 1.395A5.735 5.735 0 0019.385 0c-3.709 0-6.434 3.46-5.596 7.053A16.307 16.307 0 011.95 1.05a5.752 5.752 0 001.777 7.67 5.72 5.72 0 01-2.6-.72c-.066 2.664 1.842 5.155 4.606 5.71a5.758 5.758 0 01-2.594.097 5.75 5.75 0 005.366 3.989A11.55 11.55 0 010 20.173a16.262 16.262 0 008.805 2.582c10.667 0 16.694-9.008 16.328-17.087A11.695 11.695 0 0028 2.693z"/></symbol><symbol id="flower"><path d="M2.707 11.265l4.686 2.278c.903.44.762 1.758-.21 2.003l-5.06 1.256a1.085 1.085 0 01-.874-.16 1.066 1.066 0 01-.452-.758 9.21 9.21 0 01.422-4c.208-.615.91-.9 1.489-.619h-.002zm2.07 11.215a9.402 9.402 0 003.736 1.504 1.087 1.087 0 00.86-.227 1.064 1.064 0 00.392-.79l.183-5.195c.033-.997-1.2-1.495-1.873-.754l-3.49 3.864a1.071 1.071 0 00-.268.842 1.067 1.067 0 00.46.756zm6.836-5.153l2.766 4.407a1.068 1.068 0 00.74.49 1.085 1.085 0 00.86-.232 9.303 9.303 0 002.48-3.169 1.07 1.07 0 00-.247-1.251 1.094 1.094 0 00-.393-.23l-4.96-1.604c-.954-.305-1.778.74-1.246 1.589zm6.977-6.198a9.256 9.256 0 00-2.37-3.249 1.073 1.073 0 00-.847-.257 1.077 1.077 0 00-.752.463l-2.918 4.31c-.56.829.222 1.903 1.185 1.626l5.016-1.43c.626-.183.946-.868.686-1.463h.002zM3.61 1.414a1.086 1.086 0 00-.562.65 1.063 1.063 0 00.098.851l4.897 8.458c.55.946 2.004.557 2.004-.534V1.072a1.047 1.047 0 00-.34-.784 1.073 1.073 0 00-.813-.283C7.807.09 5.821.365 3.61 1.415v-.001z"/></symbol><symbol id="google" viewBox="0 0 22 24"><path d="M11.226 10.282h10.598c.117.697.176 1.364.176 1.999 0 2.26-.444 4.279-1.33 6.055-.887 1.776-2.15 3.164-3.794 4.164-1.642 1-3.524 1.5-5.65 1.5a10.426 10.426 0 01-4.37-.946A11.206 11.206 0 013.273 20.5c-1.003-1.073-1.8-2.349-2.39-3.828A12.5 12.5 0 010 12c0-1.636.295-3.192.885-4.672.59-1.48 1.386-2.755 2.39-3.828A11.209 11.209 0 016.856.944 10.427 10.427 0 0111.227 0c2.923 0 5.433 1.046 7.528 3.14l-3.056 3.14c-1.197-1.239-2.688-1.86-4.473-1.86-1.256 0-2.419.34-3.486 1.017-1.067.677-1.912 1.596-2.536 2.759A7.915 7.915 0 004.268 12c0 1.375.313 2.644.936 3.804.624 1.16 1.47 2.082 2.536 2.759a6.382 6.382 0 003.486 1.015c.848 0 1.628-.125 2.34-.374.71-.25 1.295-.564 1.753-.939a6.518 6.518 0 001.198-1.28c.342-.48.593-.933.754-1.36.162-.427.27-.834.329-1.219h-6.374v-4.124z"/></symbol><symbol id="arrowRight" viewBox="0 0 96 96"><path d="M12 52h62.344L53.172 73.172a4 4 0 105.657 5.656l28-28a4 4 0 000-5.656l-28-28A3.989 3.989 0 0056 16a4 4 0 00-2.828 6.828L74.344 44H12a4 4 0 000 8z"/></symbol><symbol id="arrowLeft" viewBox="0 0 96 96"><path d="M83.999 43.999H21.656l21.172-21.172a4.001 4.001 0 00-5.657-5.657l-28 28a4 4 0 00-.001 5.656l28 28a3.989 3.989 0 002.829 1.172 3.999 3.999 0 002.829-6.828L21.655 51.999h62.344a4 4 0 000-8z"/></symbol><symbol id="arrowDown" viewBox="0 0 49.656 49.656"><path d="M45.414 10.292L24.828 30.878 4.242 10.293 0 14.536l24.828 24.828 24.828-24.829-4.242-4.243zM2.828 14.536l1.414-1.414 20.586 20.585 20.586-20.586 1.414 1.414-22 22.001-22-22z"/></symbol></svg>